<svg width="24" height="24" viewBox="0 0 24 24" fill="none" xmlns="http://www.w3.org/2000/svg">
<path d="M16.9875 4.46245H15.7125V1.49995C15.7125 1.04995 15.3375 0.637451 14.85 0.637451C14.3625 0.637451 13.9875 1.01245 13.9875 1.49995V4.46245H9.97505V1.49995C9.97505 1.04995 9.60005 0.637451 9.11255 0.637451C8.62505 0.637451 8.25005 1.01245 8.25005 1.49995V4.46245H6.97505C6.11255 4.46245 5.36255 5.17495 5.36255 6.07495V10.7249C5.36255 13.4625 7.61255 15.7125 10.35 15.7125H11.1V22.4999C11.1 22.9499 11.475 23.3624 11.9625 23.3624C12.4125 23.3624 12.825 22.9874 12.825 22.4999V15.7125H13.575C16.3125 15.7125 18.5625 13.4625 18.5625 10.7249V6.07495C18.5625 5.17495 17.85 4.46245 16.9875 4.46245ZM16.875 10.7249C16.875 12.5625 15.375 14.025 13.575 14.025H10.425C8.58755 14.025 7.12505 12.525 7.12505 10.7249V6.14995H16.875V10.7249Z" fill="black"/>
</svg>
