<svg width="24" height="24" viewBox="0 0 24 24" fill="none" xmlns="http://www.w3.org/2000/svg">
<path d="M23.25 4.7999C23.2875 4.5374 23.175 4.2749 23.025 4.1249C22.8375 3.9374 22.575 3.8624 22.35 3.8999C22.125 3.9374 16.95 4.5374 14.4375 7.0499C13.575 7.8749 12.9375 8.9999 12.4875 10.1249C12.1125 8.3249 11.2875 5.4749 9.6 3.7874C7.0875 1.3124 1.9125 0.674902 1.6875 0.674902C1.425 0.637402 1.2 0.712402 1.0125 0.899902C0.825 1.0874 0.75 1.3499 0.75 1.6124C0.7875 1.8374 1.3875 7.0124 3.9 9.5249C5.8875 11.5124 9.4875 12.2999 11.0625 12.5624V22.4999C11.0625 22.9499 11.4375 23.3624 11.925 23.3624C12.4125 23.3624 12.7875 22.9874 12.7875 22.4999V15.7874C14.25 15.5624 18.075 14.7749 20.1375 12.7124C22.6125 10.1999 23.2125 5.0249 23.25 4.7999ZM5.1 8.2874C3.6375 6.8249 2.925 4.0499 2.625 2.5124C4.1625 2.8124 6.9375 3.5249 8.4 4.9874C9.8625 6.4499 10.575 9.2249 10.875 10.7624C9.3375 10.4999 6.5625 9.7874 5.1 8.2874ZM13.125 14.0249C13.425 12.4874 14.1375 9.7124 15.6 8.2499C17.0625 6.7874 19.8375 6.0749 21.375 5.7749C21.075 7.3124 20.3625 10.0874 18.9 11.5499C17.4375 13.0124 14.6625 13.7249 13.125 14.0249Z" fill="black"/>
</svg>
