<svg width="24" height="24" viewBox="0 0 24 24" fill="none" xmlns="http://www.w3.org/2000/svg">
<path d="M19.0877 6.03745C18.7502 5.62495 18.2252 5.39995 17.7002 5.39995H13.2002L14.4377 2.32495H17.7002C18.1502 2.32495 18.5252 1.94995 18.5627 1.49995C18.5627 1.04995 18.1877 0.637451 17.7377 0.637451H14.2877C13.6877 0.637451 13.1627 1.01245 12.9752 1.53745L11.4002 5.39995H6.3002C5.7752 5.39995 5.2502 5.62495 4.9127 6.03745C4.5752 6.44995 4.3877 6.97495 4.4627 7.49995L5.9627 20.775C6.1127 22.2375 7.3502 23.325 8.8127 23.325H15.2252C16.6877 23.325 17.9252 22.2375 18.0752 20.775L19.5752 7.49995C19.6127 6.97495 19.4627 6.44995 19.0877 6.03745ZM6.1502 7.16245C6.1877 7.12495 6.2252 7.08745 6.2627 7.08745H17.6627C17.7377 7.08745 17.7752 7.12495 17.7752 7.16245C17.7752 7.19995 17.8127 7.23745 17.8127 7.31245L17.3252 11.5125L16.9502 11.325C15.8252 10.7625 14.5502 10.725 13.4252 11.2125L12.9752 11.4C12.3377 11.7 11.6252 11.6625 10.9877 11.3625L10.8752 11.2875C9.7127 10.725 8.3252 10.7625 7.2377 11.3625L6.6377 11.6625L6.1502 7.31245C6.1127 7.23745 6.1502 7.19995 6.1502 7.16245ZM15.1877 21.6749H8.8127C8.2127 21.6749 7.6877 21.225 7.6127 20.625L6.8252 13.5L8.0252 12.9C8.7002 12.5625 9.4877 12.525 10.1627 12.8625L10.3502 12.975C11.4377 13.5 12.6752 13.5 13.7627 13.0125L14.2127 12.825C14.8877 12.525 15.6377 12.5625 16.2752 12.9L17.2127 13.3875L16.3877 20.7C16.3127 21.1875 15.8252 21.6749 15.1877 21.6749Z" fill="black"/>
</svg>
