<svg width="24" height="24" viewBox="0 0 24 24" fill="none" xmlns="http://www.w3.org/2000/svg">
<path d="M19.3877 0.675049H17.5502C15.9752 0.675049 14.7002 1.95005 14.7002 3.52505V18C14.7002 18.15 14.7377 18.3 14.8127 18.4501L17.4377 22.8C17.6627 23.175 18.0377 23.4 18.4877 23.4C18.9377 23.4 19.3127 23.175 19.5377 22.8L22.1627 18.4501C22.2377 18.3 22.2752 18.15 22.2752 18V3.52505C22.2377 1.95005 20.9627 0.675049 19.3877 0.675049ZM17.5502 2.32505H19.3877C20.0252 2.32505 20.5502 2.85005 20.5502 3.48755V4.50005H16.3877V3.52505C16.3877 2.88755 16.9127 2.32505 17.5502 2.32505ZM18.4877 21.1875L16.3877 17.7375V6.22505H20.5502V17.7375L18.4877 21.1875Z" fill="black"/>
<path d="M8.8502 0.712524H4.0877C2.8127 0.712524 1.7627 1.76252 1.7627 3.03752V20.925C1.7627 22.2 2.8127 23.25 4.0877 23.25H8.8502C10.1252 23.25 11.1752 22.2 11.1752 20.925V3.03752C11.2127 1.76252 10.1627 0.712524 8.8502 0.712524ZM9.5252 20.9625C9.5252 21.3375 9.2252 21.6375 8.8502 21.6375H4.0877C3.7127 21.6375 3.4127 21.3375 3.4127 20.9625V19.65H6.0377C6.4877 19.65 6.86269 19.275 6.86269 18.825C6.86269 18.375 6.4877 18 6.0377 18H3.4127V16.125H4.1627C4.6127 16.125 4.9877 15.75 4.9877 15.3C4.9877 14.85 4.6127 14.475 4.1627 14.475H3.4127V12.6375H6.0377C6.4877 12.6375 6.86269 12.2625 6.86269 11.8125C6.86269 11.3625 6.4877 10.9875 6.0377 10.9875H3.4127V9.15002H4.1627C4.6127 9.15002 4.9877 8.77502 4.9877 8.32502C4.9877 7.87502 4.6127 7.50002 4.1627 7.50002H3.4127V5.66252H6.0377C6.4877 5.66252 6.86269 5.28752 6.86269 4.83752C6.86269 4.38752 6.4877 4.01252 6.0377 4.01252H3.4127V3.03752C3.4127 2.66252 3.7127 2.36252 4.0877 2.36252H8.8502C9.2252 2.36252 9.5252 2.66252 9.5252 3.03752V20.9625Z" fill="black"/>
</svg>
