<svg width="24" height="24" viewBox="0 0 24 24" fill="none" xmlns="http://www.w3.org/2000/svg">
<path d="M8.92511 23.3625C8.47511 23.3625 8.06261 23.175 7.76261 22.8375C7.20011 22.2 7.38761 21.45 7.46261 21.1125L9.45011 12.6H5.58761C5.32511 12.6 4.80011 12.6 4.35011 12.2625C3.60011 11.6625 3.82511 10.65 3.86261 10.3125L5.43761 2.62504C5.51261 2.21254 5.66261 1.57504 6.22511 1.12504C6.86261 0.637539 7.50011 0.637539 7.87511 0.675039H13.0126C13.4626 0.675039 14.4001 0.675039 14.9626 1.38754C15.5251 2.10004 15.3376 3.03754 15.2626 3.48754L14.8126 5.62504L18.1126 5.66254C19.4251 5.66254 19.9126 6.26254 20.0626 6.75004C20.3251 7.50004 19.8751 8.17504 19.6876 8.43754L10.5001 22.275C10.3126 22.5375 10.0501 22.95 9.56261 23.2125C9.37511 23.2875 9.18761 23.3625 9.00011 23.3625C9.00011 23.325 8.96261 23.3625 8.92511 23.3625ZM5.55011 10.875C5.58761 10.875 5.62511 10.875 5.62511 10.875H10.5376C10.8001 10.875 11.0251 10.9875 11.2126 11.2125C11.3626 11.4 11.4376 11.6625 11.3626 11.925L9.18761 21.225L18.2626 7.50004C18.3001 7.46254 18.3376 7.38754 18.3376 7.35004C18.2626 7.35004 18.1876 7.35004 18.0376 7.35004L13.7251 7.31254C13.4626 7.31254 13.2376 7.20004 13.0876 7.01254C12.9376 6.82504 12.8626 6.56254 12.9376 6.30004L13.6126 3.11254C13.7251 2.58754 13.6876 2.47504 13.6501 2.43754C13.6126 2.40004 13.5001 2.36254 12.9751 2.36254H7.87511C7.57511 2.36254 7.38761 2.36254 7.35011 2.40004C7.31261 2.43754 7.23761 2.62504 7.16261 2.92504L5.58761 10.6125C5.58761 10.725 5.55011 10.8 5.55011 10.875Z" fill="black"/>
</svg>
