<svg width="24" height="24" viewBox="0 0 24 24" fill="none" xmlns="http://www.w3.org/2000/svg">
<path d="M16.9123 21.975H7.01231C5.51231 21.975 4.2748 20.8125 4.1623 19.275L3.5998 8.7375H2.1373C1.4998 8.7375 0.974805 8.25 0.937305 7.65L0.674805 3.225C0.674805 2.55 1.1998 2.0625 1.8748 2.0625H8.77481C9.2998 2.0625 9.74981 2.4 9.93731 2.925L9.9748 3.075C10.0873 3.975 10.9873 4.725 12.0373 4.725C13.0873 4.725 13.9873 4.0125 14.0998 3.1125C14.1373 2.55 14.6623 2.0625 15.2998 2.0625H22.1998C22.8748 2.0625 23.3998 2.5875 23.3998 3.225V3.3L23.0998 7.6875C23.0623 8.2875 22.5373 8.775 21.8998 8.775H20.3623L19.7998 19.3125C19.6873 20.775 18.4498 21.975 16.9123 21.975ZM5.2873 8.1375L5.8873 19.1625C5.9248 19.7625 6.4123 20.25 7.0498 20.25H16.9873C17.5873 20.25 18.1123 19.7625 18.1498 19.1625L18.7498 8.1375C18.7498 7.4625 19.3873 7.05 19.9498 7.05H21.4873L21.7123 3.7125H15.6748C15.2623 5.25 13.7623 6.375 11.9998 6.375C10.2373 6.375 8.73731 5.25 8.32481 3.7125H2.3623L2.5873 7.05H4.0873C4.7248 7.05 5.2498 7.5375 5.2873 8.1375Z" fill="black"/>
</svg>
