<svg width="24" height="24" viewBox="0 0 24 24" fill="none" xmlns="http://www.w3.org/2000/svg">
<path d="M9.56231 16.575C7.72481 16.575 5.96231 15.6375 4.91231 14.1C2.9998 13.125 1.7998 11.175 1.7998 9.07495C1.7998 5.96245 4.3498 3.41245 7.46231 3.37495C7.7248 3.37495 7.98731 3.37495 8.24981 3.41245C9.18731 1.49995 11.1373 0.262451 13.3123 0.262451C15.8248 0.262451 18.0373 1.94995 18.7123 4.34995C20.8123 5.21245 22.1998 7.23745 22.1998 9.56245C22.1998 12.675 19.6873 15.1875 16.5748 15.1875C15.6373 15.1875 14.7373 14.9625 13.9123 14.5125C12.8248 15.7875 11.2498 16.5375 9.56231 16.575ZM7.46231 5.06245C5.2873 5.09995 3.4873 6.86245 3.4873 9.07495C3.4873 10.6125 4.4248 12.0375 5.8123 12.675C5.96231 12.75 6.0748 12.8625 6.1873 13.0125C6.89981 14.175 8.1748 14.8875 9.5248 14.8875C10.9123 14.85 12.1873 14.1375 12.9373 12.975C13.0498 12.7875 13.2748 12.6375 13.4998 12.6C13.7248 12.5625 13.9873 12.6 14.1748 12.75C14.8873 13.275 15.7123 13.575 16.5748 13.575C18.7498 13.575 20.5123 11.8125 20.5123 9.63745C20.5123 7.87495 19.3873 6.37495 17.7373 5.84995C17.4373 5.77495 17.2123 5.51245 17.1748 5.21245C16.7998 3.37495 15.1873 2.02495 13.3123 2.02495C11.6248 2.02495 10.1248 3.11245 9.56231 4.72495C9.41231 5.13745 8.96231 5.39995 8.54981 5.28745C8.17481 5.09995 7.79981 5.06245 7.46231 5.06245Z" fill="black"/>
<path d="M15.2621 21C13.9121 21 12.7871 19.875 12.7871 18.525C12.7871 17.175 13.9121 16.05 15.2621 16.05C16.6121 16.05 17.7371 17.175 17.7371 18.525C17.7371 19.875 16.6496 21 15.2621 21ZM15.2621 17.7375C14.8121 17.7375 14.4746 18.075 14.4746 18.525C14.4746 18.975 14.8121 19.3125 15.2621 19.3125C15.7121 19.3125 16.0496 18.975 16.0496 18.525C16.0871 18.075 15.7121 17.7375 15.2621 17.7375Z" fill="black"/>
<path d="M19.7247 23.7375C18.5997 23.7375 17.6997 22.8375 17.6997 21.7125C17.6997 20.5875 18.5997 19.6875 19.7247 19.6875C20.2872 19.6875 20.8122 19.9125 21.1872 20.2875C21.5622 20.6625 21.7497 21.1875 21.7497 21.75C21.7497 21.7875 21.7497 21.7875 21.7497 21.825C21.6747 22.875 20.8122 23.7375 19.7247 23.7375ZM19.7247 21.375C19.5372 21.375 19.3872 21.525 19.3872 21.7125C19.3872 21.9 19.5372 22.05 19.7247 22.05C19.9122 22.05 20.0247 21.9 20.0622 21.7125C20.0622 21.6 20.0247 21.5625 19.9872 21.525C19.9497 21.45 19.8372 21.375 19.7247 21.375Z" fill="black"/>
</svg>
