<svg width="24" height="24" viewBox="0 0 24 24" fill="none" xmlns="http://www.w3.org/2000/svg">
<g clip-path="url(#clip0_14_35409)">
<path d="M23.1001 5.7376L18.2626 0.900098C17.9251 0.562598 17.4001 0.562598 17.0626 0.900098C16.7251 1.2376 16.7251 1.7626 17.0626 2.1001L18.8626 3.9001L17.0251 5.7376L16.6501 5.3626C15.5251 4.2376 13.6876 4.2376 12.5626 5.3626L5.8501 12.1501C5.1751 12.8251 4.9126 13.7626 5.0626 14.6626L4.1251 15.5626C3.6001 16.1251 3.3001 16.8376 3.3001 17.6251C3.3001 18.1501 3.4501 18.6751 3.7126 19.1251L0.900098 21.9376C0.562598 22.2751 0.562598 22.8001 0.900098 23.1376C1.0501 23.2876 1.2751 23.4001 1.5001 23.4001C1.7251 23.4001 1.9501 23.3251 2.1001 23.1376L4.9126 20.3251C5.3626 20.5876 5.8501 20.7376 6.4126 20.7376C7.2001 20.7376 7.9126 20.4376 8.4751 19.8751L9.3751 18.9751C9.5251 19.0126 9.6751 19.0126 9.8626 19.0126C10.6126 19.0126 11.3251 18.7126 11.9251 18.1501L18.7126 11.3626C19.8376 10.2376 19.8376 8.4001 18.7126 7.2751L18.3376 6.9001L20.1751 5.0626L21.9751 6.8626C22.1251 7.0126 22.3501 7.1251 22.5751 7.1251C22.8001 7.1251 23.0251 7.0501 23.1751 6.8626C23.4376 6.6001 23.4376 6.0376 23.1001 5.7376ZM5.5501 18.6751L5.3626 18.4876C5.1376 18.2626 5.0251 17.9626 5.0251 17.6251C5.0251 17.2876 5.1376 16.9876 5.3626 16.7626L5.8876 16.2376L7.8001 18.1501L7.2751 18.6751C6.7876 19.1251 6.0001 19.1251 5.5501 18.6751ZM17.4376 10.2001L10.6501 16.9501C10.1626 17.4001 9.4126 17.4376 8.9626 16.9501L7.0501 15.0376C6.5626 14.5501 6.5626 13.8001 7.0501 13.3501L13.8376 6.5626C14.3251 6.0751 15.0751 6.0751 15.5251 6.5626L17.4376 8.4751C17.9251 8.9626 17.9251 9.7126 17.4376 10.2001Z" fill="black"/>
</g>
<defs>
<clipPath id="clip0_14_35409">
<rect width="24" height="24" fill="white"/>
</clipPath>
</defs>
</svg>
