<svg width="24" height="24" viewBox="0 0 24 24" fill="none" xmlns="http://www.w3.org/2000/svg">
<path d="M21.7874 11.1376H21.4124V4.2751C21.4124 2.7751 20.1749 1.5376 18.6749 1.5376H5.28745C3.78745 1.5376 2.54995 2.7751 2.54995 4.2751V11.1376H2.17495C1.31245 11.1376 0.637451 11.8126 0.637451 12.6751V19.6876C0.637451 21.1876 1.87495 22.4251 3.37495 22.4251H20.6249C21.3375 22.4251 22.0499 22.1251 22.5374 21.6376C23.0624 21.1126 23.3249 20.4376 23.3249 19.6876V12.6751C23.3624 11.8501 22.6499 11.1376 21.7874 11.1376ZM4.23745 7.6126C4.53745 7.7251 4.79995 7.8751 5.09995 8.0626C5.66245 8.4376 6.37495 8.8501 7.68745 8.8501C8.99995 8.8501 9.71245 8.4001 10.275 8.0626C10.7625 7.7626 11.1375 7.5001 11.9625 7.5001C12.7874 7.5001 13.1625 7.7251 13.65 8.0626C14.2125 8.4376 14.9249 8.8501 16.2374 8.8501C17.5499 8.8501 18.2624 8.4001 18.8249 8.0626C19.125 7.8751 19.3499 7.7251 19.6874 7.6126V11.1751H4.23745V7.6126ZM5.28745 3.2626H18.7125C19.275 3.2626 19.7624 3.7126 19.7624 4.3126V5.8876C18.9749 6.0376 18.4499 6.3376 18 6.6376C17.5124 6.9376 17.1374 7.2001 16.3124 7.2001C15.4874 7.2001 15.1124 6.9751 14.6249 6.6376C14.0624 6.2626 13.3499 5.8501 12.0374 5.8501C10.7249 5.8501 10.0125 6.3001 9.44995 6.6376C8.96245 6.9376 8.58745 7.2001 7.76245 7.2001C6.93745 7.2001 6.56245 6.9751 6.07495 6.6376C5.62495 6.3751 5.13745 6.0376 4.31245 5.8876V4.3126C4.23745 3.7126 4.72495 3.2626 5.28745 3.2626ZM2.54995 12.8251H21.4124H21.6374V15.0376C20.625 15.1876 19.9874 15.5626 19.4249 15.9376C18.8249 16.3126 18.2999 16.6126 17.25 16.6126C16.1624 16.6126 15.6749 16.3126 15.075 15.9376C14.3624 15.4876 13.575 15.0001 12 15.0001C10.425 15.0001 9.63745 15.4876 8.92495 15.9376C8.32495 16.3126 7.79995 16.6126 6.74995 16.6126C5.69995 16.6126 5.17495 16.3126 4.57495 15.9376C4.01245 15.5626 3.37495 15.1876 2.36245 15.0376V12.8251H2.54995ZM21.3375 20.4376C21.15 20.6251 20.8874 20.7376 20.5875 20.7376H3.37495C2.81245 20.7376 2.32495 20.2501 2.32495 19.6876V16.7626C2.84995 16.8751 3.22495 17.1001 3.67495 17.3626C4.38745 17.8126 5.17495 18.3001 6.74995 18.3001C8.32495 18.3001 9.11245 17.8126 9.82495 17.3626C10.425 16.9876 10.95 16.6876 12 16.6876C13.0875 16.6876 13.5749 16.9876 14.1749 17.3626C14.8874 17.8126 15.6749 18.3001 17.25 18.3001C18.7874 18.3001 19.6124 17.8126 20.3249 17.3626C20.7374 17.1001 21.1124 16.8751 21.6749 16.7626V19.6876C21.6749 19.9876 21.5625 20.2501 21.3375 20.4376Z" fill="black"/>
</svg>
