<svg width="24" height="24" viewBox="0 0 24 24" fill="none" xmlns="http://www.w3.org/2000/svg">
<path d="M20.5873 3.52505H20.4748V3.00005C20.4748 1.72505 19.4248 0.675049 18.1498 0.675049H7.7623C6.4873 0.675049 5.4373 1.72505 5.4373 3.00005V3.52505H4.1248C3.2623 3.52505 2.5498 4.23755 2.5498 5.10005V10.35C2.5498 11.2126 3.2623 11.925 4.1248 11.925H14.0248V13.1251C12.9373 13.3126 12.1123 14.2875 12.1123 15.4125V21.0001C12.1123 22.2751 13.1623 23.3251 14.4373 23.3251H15.2623C16.5373 23.3251 17.5873 22.2751 17.5873 21.0001V15.4125C17.5873 14.2875 16.7623 13.3126 15.6748 13.1251V11.7751C15.6748 10.9125 14.9623 10.2001 14.0998 10.2001H4.2373V5.21255H5.3998V5.73755C5.3998 7.01255 6.4498 8.06255 7.7248 8.06255H18.0748C19.3498 8.06255 20.3998 7.01255 20.3998 5.73755V5.21255H20.5123C20.9623 5.21255 21.3373 4.83755 21.3373 4.38755C21.3373 3.93755 21.0748 3.52505 20.5873 3.52505ZM15.9373 15.4125V21.0001C15.9373 21.3751 15.6373 21.6751 15.2623 21.6751H14.4373C14.0623 21.6751 13.7623 21.3751 13.7623 21.0001V15.4125C13.7623 15.0375 14.0623 14.7375 14.4373 14.7375H15.2623C15.6373 14.7375 15.9373 15.0375 15.9373 15.4125ZM18.7873 5.73755C18.7873 6.11255 18.4873 6.41255 18.1123 6.41255H7.7623C7.3873 6.41255 7.0873 6.11255 7.0873 5.73755V3.00005C7.0873 2.62505 7.3873 2.32505 7.7623 2.32505H18.1123C18.4873 2.32505 18.7873 2.62505 18.7873 3.00005V5.73755Z" fill="black"/>
</svg>
