<svg width="24" height="16" viewBox="0 0 24 16" fill="none" xmlns="http://www.w3.org/2000/svg">
<path d="M21.5252 10.2875C21.5252 4.85002 17.2502 0.462524 12.0002 0.462524C6.7502 0.462524 2.4752 4.85002 2.4752 10.25V10.2875C1.4627 10.3625 0.637695 11.1875 0.637695 12.2375V13.55C0.637695 14.6375 1.5377 15.5 2.5877 15.5H21.3377C22.4252 15.5 23.2877 14.6 23.2877 13.55V12.2375C23.3252 11.225 22.5377 10.3625 21.5252 10.2875ZM7.6877 3.46252V4.88752C7.6877 5.33752 8.0627 5.71252 8.5127 5.71252C8.9627 5.71252 9.3377 5.33752 9.3377 4.88752V2.60002C9.9002 2.37502 10.5002 2.26252 11.1002 2.18752V5.78752C11.1002 6.23752 11.4752 6.61252 11.9252 6.61252C12.3752 6.61252 12.7502 6.23752 12.7502 5.78752V2.18752C13.3502 2.26252 13.9502 2.41252 14.5127 2.60002V4.88752C14.5127 5.33752 14.8877 5.71252 15.3377 5.71252C15.7877 5.71252 16.1627 5.33752 16.1627 4.88752V3.46252C18.3002 4.92502 19.6877 7.40002 19.6877 10.25C19.6877 10.25 19.6877 10.25 19.6877 10.2875H4.1627C4.1627 10.2875 4.1627 10.2875 4.1627 10.25C4.1627 7.43752 5.5877 4.92502 7.6877 3.46252ZM21.6752 13.5875C21.6752 13.7375 21.5627 13.8875 21.3752 13.8875H2.6252C2.4752 13.8875 2.3252 13.775 2.3252 13.5875V12.275C2.3252 12.125 2.4377 11.975 2.6252 11.975H21.3752C21.5252 11.975 21.6752 12.0875 21.6752 12.275V13.5875Z" fill="black"/>
</svg>
