<svg width="24" height="24" viewBox="0 0 24 24" fill="none" xmlns="http://www.w3.org/2000/svg">
<path d="M21.4498 3.5249H13.1998C12.7498 3.5249 12.3373 3.6749 11.9998 3.8999C11.6623 3.6749 11.2498 3.5249 10.7998 3.5249H2.5498C1.4998 3.5249 0.674805 4.3874 0.674805 5.3999V17.6249C0.674805 18.6749 1.5373 19.4999 2.5498 19.4999H11.1748V19.6124C11.1748 20.0624 11.5498 20.4749 12.0373 20.4749C12.4873 20.4749 12.8998 20.0999 12.8998 19.6124V19.4999H21.5248C22.5748 19.4999 23.3998 18.6374 23.3998 17.6249V5.3999C23.3623 4.3499 22.4998 3.5249 21.4498 3.5249ZM2.5498 17.8499C2.4373 17.8499 2.3623 17.7749 2.3623 17.6624V5.3999C2.3623 5.2874 2.4373 5.2124 2.5498 5.2124H10.8373C11.0248 5.2124 11.1748 5.3624 11.1748 5.5499V17.8499H2.5498ZM21.6748 17.6249C21.6748 17.7374 21.5998 17.8124 21.4873 17.8124H12.8623V5.5499C12.8623 5.3624 13.0123 5.2124 13.1998 5.2124H21.4873C21.5998 5.2124 21.6748 5.2874 21.6748 5.3999V17.6249Z" fill="black"/>
<path d="M5.3625 8.88735H8.1375C8.5875 8.88735 9 8.51235 9 8.02485C9 7.53735 8.625 7.16235 8.1375 7.16235H5.3625C4.9125 7.16235 4.5 7.53735 4.5 8.02485C4.5 8.51235 4.875 8.88735 5.3625 8.88735Z" fill="black"/>
<path d="M15.7497 8.88735H18.5247C18.9747 8.88735 19.3872 8.51235 19.3872 8.02485C19.3872 7.53735 19.0122 7.16235 18.5247 7.16235H15.7497C15.2997 7.16235 14.8872 7.53735 14.8872 8.02485C14.8872 8.51235 15.2997 8.88735 15.7497 8.88735Z" fill="black"/>
<path d="M18.5999 10.2749H15.8249C15.3749 10.2749 14.9624 10.6499 14.9624 11.1374C14.9624 11.6249 15.3374 11.9999 15.8249 11.9999H18.5999C19.0499 11.9999 19.4624 11.6249 19.4624 11.1374C19.4624 10.6499 19.0499 10.2749 18.5999 10.2749Z" fill="black"/>
<path d="M8.17461 10.2749H5.39961C4.94961 10.2749 4.53711 10.6499 4.53711 11.1374C4.53711 11.6249 4.91211 11.9999 5.39961 11.9999H8.17461C8.62461 11.9999 9.03711 11.6249 9.03711 11.1374C9.03711 10.6499 8.66211 10.2749 8.17461 10.2749Z" fill="black"/>
<path d="M8.17461 13.575H5.39961C4.94961 13.575 4.53711 13.95 4.53711 14.4375C4.53711 14.925 4.91211 15.3 5.39961 15.3H8.17461C8.62461 15.3 9.03711 14.925 9.03711 14.4375C9.03711 13.95 8.66211 13.575 8.17461 13.575Z" fill="black"/>
<path d="M18.5999 13.575H15.8249C15.3749 13.575 14.9624 13.95 14.9624 14.4375C14.9624 14.925 15.3374 15.3 15.8249 15.3H18.5999C19.0499 15.3 19.4624 14.925 19.4624 14.4375C19.4624 13.95 19.0499 13.575 18.5999 13.575Z" fill="black"/>
</svg>
