<svg width="24" height="24" viewBox="0 0 24 24" fill="none" xmlns="http://www.w3.org/2000/svg">
<g clip-path="url(#clip0_14_34966)">
<path d="M23.2123 9.07505L19.9498 1.61255C19.7998 1.23755 19.4998 0.975049 19.1623 0.825049C19.0873 0.787549 19.0498 0.750049 18.9748 0.712549C18.8623 0.675049 18.7498 0.675049 18.5998 0.675049C18.5623 0.675049 18.5248 0.675049 18.5248 0.675049H5.5123C4.9123 0.675049 4.3498 1.05005 4.0873 1.61255L0.787304 9.07505C0.562304 9.60005 0.637304 10.2 0.974804 10.65L10.7623 22.725C11.0248 23.0625 11.3998 23.2875 11.8123 23.3251C11.8873 23.3251 11.9248 23.3625 11.9998 23.3625C12.4873 23.3625 12.9373 23.1376 13.2373 22.7626L23.0248 10.725L23.0623 10.6875C23.3623 10.2 23.4373 9.60005 23.2123 9.07505ZM21.4498 9.26255H16.9873L18.8998 3.48755L21.4498 9.26255ZM15.6748 7.83755L13.1248 2.32505H17.5123L15.6748 7.83755ZM11.9998 3.93755L14.4748 9.26255H9.5248L11.9998 3.93755ZM8.2498 7.95005L6.1498 2.32505H10.8748L8.2498 7.95005ZM14.6998 10.95L11.9998 19.65L9.3373 10.95H14.6998ZM10.1248 19.275L3.3748 10.95H7.5748L10.1248 19.275ZM16.4623 10.95H20.6248L13.8748 19.2375L16.4623 10.95ZM4.9123 3.86255L6.9748 9.22505H2.5498L4.9123 3.86255Z" fill="black"/>
</g>
<defs>
<clipPath id="clip0_14_34966">
<rect width="24" height="24" fill="white"/>
</clipPath>
</defs>
</svg>
