<svg width="24" height="24" viewBox="0 0 24 24" fill="none" xmlns="http://www.w3.org/2000/svg">
<path fill-rule="evenodd" clip-rule="evenodd" d="M5.20702 6.39076C5.3963 6.1444 5.68933 6 6.00001 6H20C20.3107 6 20.6037 6.1444 20.793 6.39076C20.9823 6.63713 21.0463 6.95747 20.9662 7.25766L18.9662 14.7577C18.8495 15.1954 18.4531 15.5 18 15.5H8.00001C7.54696 15.5 7.15051 15.1954 7.03377 14.7577L5.03377 7.25766C4.95372 6.95747 5.01774 6.63713 5.20702 6.39076ZM7.30162 8L8.76829 13.5H17.2317L18.6984 8H7.30162Z" fill="black"/>
<path fill-rule="evenodd" clip-rule="evenodd" d="M3 4H5.5C5.95887 4 6.35885 4.3123 6.47014 4.75746L6.97014 6.75746L5.02986 7.24254L4.71922 6H3V4Z" fill="black"/>
<path fill-rule="evenodd" clip-rule="evenodd" d="M8.5 18C8.22386 18 8 18.2239 8 18.5C8 18.7761 8.22386 19 8.5 19C8.77614 19 9 18.7761 9 18.5C9 18.2239 8.77614 18 8.5 18ZM6 18.5C6 17.1193 7.11929 16 8.5 16C9.88071 16 11 17.1193 11 18.5C11 19.8807 9.88071 21 8.5 21C7.11929 21 6 19.8807 6 18.5Z" fill="black"/>
<path fill-rule="evenodd" clip-rule="evenodd" d="M17.5 18C17.2239 18 17 18.2239 17 18.5C17 18.7761 17.2239 19 17.5 19C17.7761 19 18 18.7761 18 18.5C18 18.2239 17.7761 18 17.5 18ZM15 18.5C15 17.1193 16.1193 16 17.5 16C18.8807 16 20 17.1193 20 18.5C20 19.8807 18.8807 21 17.5 21C16.1193 21 15 19.8807 15 18.5Z" fill="black"/>
</svg>
