<svg width="20" height="20" viewBox="0 0 20 20" fill="none" xmlns="http://www.w3.org/2000/svg">
<path d="M1 19H19M11.7844 3.31171C11.7844 3.31171 11.7844 4.94634 13.419 6.58096C15.0537 8.21559 16.6883 8.21559 16.6883 8.21559M5.31963 15.9881L8.75234 15.4977C9.2475 15.4269 9.70636 15.1975 10.06 14.8438L18.3229 6.58096C19.2257 5.67818 19.2257 4.21449 18.3229 3.31171L16.6883 1.67708C15.7855 0.774305 14.3218 0.774305 13.419 1.67708L5.15616 9.93996C4.80248 10.2936 4.57305 10.7525 4.50231 11.2477L4.01193 14.6804C3.90295 15.4432 4.5568 16.097 5.31963 15.9881Z" stroke="#101817" stroke-width="1.5" stroke-linecap="round"/>
</svg>
