<svg width="24" height="24" viewBox="0 0 24 24" fill="none" xmlns="http://www.w3.org/2000/svg">
<path fill-rule="evenodd" clip-rule="evenodd" d="M19.5315 5.43678C17.6504 3.6121 14.6411 3.52395 12.6524 5.18025C12.4629 5.33806 12.2308 5.41467 12 5.41177C11.7692 5.41467 11.537 5.33806 11.3476 5.18025C9.35884 3.52395 6.34958 3.6121 4.46844 5.43678C2.6015 7.24769 2.51612 10.1178 4.20433 12.025C4.22913 12.053 4.25209 12.082 4.27319 12.1119L12 19.6068L19.7268 12.1119C19.7479 12.082 19.7709 12.053 19.7957 12.025C21.4839 10.1178 21.3985 7.24769 19.5315 5.43678ZM21.4231 13.1995C23.6817 10.4958 23.5128 6.51228 20.924 4.00119C18.4925 1.6426 14.7383 1.37006 12 3.17728C9.2617 1.37006 5.5075 1.6426 3.07593 4.00119C0.487146 6.51228 0.318271 10.4958 2.57685 13.1995C2.62271 13.279 2.67972 13.3526 2.74682 13.4177L11.3037 21.7178C11.6917 22.094 12.3083 22.094 12.6962 21.7178L21.2532 13.4177C21.3203 13.3526 21.3773 13.279 21.4231 13.1995Z" fill="black"/>
<path fill-rule="evenodd" clip-rule="evenodd" d="M18 9C18 7.89543 17.1046 7 16 7V5C18.2091 5 20 6.79086 20 9H18Z" fill="black"/>
</svg>
