<svg width="24" height="24" viewBox="0 0 24 24" fill="none" xmlns="http://www.w3.org/2000/svg">
<path fill-rule="evenodd" clip-rule="evenodd" d="M12.5547 4.57176C12.2188 4.34783 11.7812 4.34783 11.4453 4.57176L4.4453 9.23842C4.1671 9.42389 4 9.73612 4 10.0705V19.0001C4 19.5524 4.44772 20.0001 5 20.0001H8V16.0001C8 14.3433 9.34315 13.0001 11 13.0001H13C14.6569 13.0001 16 14.3433 16 16.0001V20.0001H19C19.5523 20.0001 20 19.5524 20 19.0001V10.0705C20 9.73612 19.8329 9.42389 19.5547 9.23842L12.5547 4.57176ZM10.3359 2.90766C11.3436 2.23586 12.6564 2.23586 13.6641 2.90766L20.6641 7.57432C21.4987 8.13072 22 9.06742 22 10.0705V19.0001C22 20.657 20.6569 22.0001 19 22.0001H15C14.4477 22.0001 14 21.5524 14 21.0001V16.0001C14 15.4478 13.5523 15.0001 13 15.0001H11C10.4477 15.0001 10 15.4478 10 16.0001V21.0001C10 21.5524 9.55228 22.0001 9 22.0001H5C3.34315 22.0001 2 20.657 2 19.0001V10.0705C2 9.06742 2.5013 8.13072 3.3359 7.57432L10.3359 2.90766Z" fill="black"/>
</svg>
