<svg width="24" height="24" viewBox="0 0 24 24" fill="none" xmlns="http://www.w3.org/2000/svg">
<path fill-rule="evenodd" clip-rule="evenodd" d="M10 3.75C6.54822 3.75 3.75 6.54822 3.75 10C3.75 10.6218 3.84056 11.221 4.00872 11.7861C4.12687 12.1831 3.90082 12.6007 3.50382 12.7188C3.10681 12.837 2.68919 12.6109 2.57104 12.2139C2.36199 11.5115 2.25 10.7682 2.25 10C2.25 5.71979 5.71979 2.25 10 2.25C14.2802 2.25 17.75 5.71979 17.75 10C17.75 14.2802 14.2802 17.75 10 17.75C8.3544 17.75 6.82654 17.2363 5.57093 16.3604C5.23119 16.1235 5.14789 15.656 5.38486 15.3162C5.62183 14.9765 6.08934 14.8932 6.42907 15.1302C7.44113 15.8361 8.6711 16.25 10 16.25C13.4518 16.25 16.25 13.4518 16.25 10C16.25 6.54822 13.4518 3.75 10 3.75Z" fill="black"/>
<path fill-rule="evenodd" clip-rule="evenodd" d="M9.25 5.5C9.25 5.08579 9.58579 4.75 10 4.75C12.8995 4.75 15.25 7.1005 15.25 10C15.25 10.4142 14.9142 10.75 14.5 10.75C14.0858 10.75 13.75 10.4142 13.75 10C13.75 7.92893 12.0711 6.25 10 6.25C9.58579 6.25 9.25 5.91421 9.25 5.5Z" fill="black"/>
<path fill-rule="evenodd" clip-rule="evenodd" d="M14.4697 14.4697C14.7626 14.1768 15.2374 14.1768 15.5303 14.4697L21.5303 20.4697C21.8232 20.7626 21.8232 21.2374 21.5303 21.5303C21.2374 21.8232 20.7626 21.8232 20.4697 21.5303L14.4697 15.5303C14.1768 15.2374 14.1768 14.7626 14.4697 14.4697Z" fill="black"/>
</svg>
