<svg width="24" height="24" viewBox="0 0 24 24" fill="none" xmlns="http://www.w3.org/2000/svg">
<path fill-rule="evenodd" clip-rule="evenodd" d="M19.5483 7.08199C19.4064 6.93003 19.2079 6.84375 19 6.84375H5C4.79212 6.84375 4.59357 6.93003 4.45173 7.08199C4.30988 7.23395 4.23747 7.43797 4.25178 7.64535L5.25178 22.1454C5.2789 22.5386 5.60581 22.8438 6 22.8438H8C8.41421 22.8438 8.75 22.508 8.75 22.0938C8.75 21.6795 8.41421 21.3438 8 21.3438H6.70006L5.8035 8.34375H18.1965L17.2999 21.3438H12C11.5858 21.3438 11.25 21.6795 11.25 22.0938C11.25 22.508 11.5858 22.8438 12 22.8438H18C18.3942 22.8438 18.7211 22.5386 18.7482 22.1454L19.7482 7.64535C19.7625 7.43797 19.6901 7.23395 19.5483 7.08199Z" fill="black"/>
<path fill-rule="evenodd" clip-rule="evenodd" d="M12 9.34375C12.4142 9.34375 12.75 9.67954 12.75 10.0938V19.0938C12.75 19.508 12.4142 19.8438 12 19.8438C11.5858 19.8438 11.25 19.508 11.25 19.0938V10.0938C11.25 9.67954 11.5858 9.34375 12 9.34375Z" fill="black"/>
<path fill-rule="evenodd" clip-rule="evenodd" d="M8.45842 9.34493C8.87199 9.32195 9.22589 9.63859 9.24887 10.0522L9.74887 19.0522C9.77184 19.4657 9.4552 19.8196 9.04162 19.8426C8.62805 19.8656 8.27415 19.5489 8.25118 19.1354L7.75118 10.1354C7.7282 9.7218 8.04484 9.3679 8.45842 9.34493Z" fill="black"/>
<path fill-rule="evenodd" clip-rule="evenodd" d="M15.5416 9.34493C15.128 9.32195 14.7741 9.63859 14.7511 10.0522L14.2511 19.0522C14.2282 19.4657 14.5448 19.8196 14.9584 19.8426C15.372 19.8656 15.7258 19.5489 15.7488 19.1354L16.2488 10.1354C16.2718 9.7218 15.9552 9.3679 15.5416 9.34493Z" fill="black"/>
<path fill-rule="evenodd" clip-rule="evenodd" d="M4.25 6.59375C4.25 5.07497 5.48122 3.84375 7 3.84375H17C18.5188 3.84375 19.75 5.07497 19.75 6.59375V7.59375C19.75 8.00796 19.4142 8.34375 19 8.34375H5C4.58579 8.34375 4.25 8.00796 4.25 7.59375V6.59375ZM7 5.34375C6.30964 5.34375 5.75 5.90339 5.75 6.59375V6.84375H18.25V6.59375C18.25 5.90339 17.6904 5.34375 17 5.34375H7Z" fill="black"/>
<path fill-rule="evenodd" clip-rule="evenodd" d="M12 2.65625C11.3096 2.65625 10.75 3.21589 10.75 3.90625V4.59375C10.75 5.00796 10.4142 5.34375 10 5.34375C9.58579 5.34375 9.25 5.00796 9.25 4.59375V3.90625C9.25 2.38747 10.4812 1.15625 12 1.15625C13.5188 1.15625 14.75 2.38747 14.75 3.90625V4.59375C14.75 5.00796 14.4142 5.34375 14 5.34375C13.5858 5.34375 13.25 5.00796 13.25 4.59375V3.90625C13.25 3.21589 12.6904 2.65625 12 2.65625Z" fill="black"/>
<path fill-rule="evenodd" clip-rule="evenodd" d="M1.25 7.59375C1.25 7.17954 1.58579 6.84375 2 6.84375H22C22.4142 6.84375 22.75 7.17954 22.75 7.59375C22.75 8.00796 22.4142 8.34375 22 8.34375H2C1.58579 8.34375 1.25 8.00796 1.25 7.59375Z" fill="black"/>
</svg>
